# xmcd
#
# Track frame offsets:
#	150
#	16248
#	33488
#	51166
#	63768
#	77512
#	91684
#	106879
#	123384
#	137570
#
# Disc length: 2081 seconds
#
# Revision: 1
# Processed by: cddbd v1.5.1PL2 Copyright (c) Steve Scherf et al.
# Submitted via: audiograbber 1.81.03
#
DISCID=70081f0a
DTITLE=Leighann Burke - Divided
DYEAR=2006
DGENRE=Country Crossover
TTITLE0=Get it, got it
TTITLE1=The line I used to walk
TTITLE2=Devoted
TTITLE3=27 Names
TTITLE4=A little bad
TTITLE5=Higher
TTITLE6=I'm on my way
TTITLE7=A woman and a man
TTITLE8=Take a chance
TTITLE9=Hurt somebody
EXTD=
EXTT0=
EXTT1=
EXTT2=
EXTT3=
EXTT4=
EXTT5=
EXTT6=
EXTT7=
EXTT8=
EXTT9=
PLAYORDER=
